<svg width="19" height="17" viewBox="0 0 19 17" fill="none" xmlns="http://www.w3.org/2000/svg">
<g clip-path="url(#clip0_5252_7251)">
<path d="M18.6309 5.1233C18.62 4.44344 18.4803 3.76896 18.2128 3.1331C17.7448 2.0473 16.7918 1.18871 15.5854 0.768396C14.8878 0.532195 14.1504 0.405562 13.404 0.391193C12.444 0.352574 12.1396 0.341797 9.70279 0.341797C7.26593 0.341797 6.95359 0.341797 6.0006 0.391193C5.25517 0.405562 4.51773 0.532195 3.8202 0.768396C2.61375 1.18871 1.65976 2.0473 1.19275 3.1331C0.930303 3.76088 0.788603 4.42458 0.774632 5.09546C0.731723 5.96034 0.71875 6.23426 0.71875 8.42743C0.71875 10.6206 0.71875 10.9008 0.774632 11.7594C0.7896 12.4312 0.930303 13.094 1.19275 13.7235C1.66076 14.8085 2.61375 15.667 3.8212 16.0874C4.51573 16.3316 5.25318 16.4699 6.0016 16.4915C6.96257 16.5301 7.26693 16.5418 9.70378 16.5418C12.1406 16.5418 12.453 16.5418 13.406 16.4915C14.1514 16.478 14.8888 16.3514 15.5874 16.1152C16.7938 15.694 17.7468 14.8354 18.2148 13.7505C18.4773 13.1218 18.618 12.459 18.6329 11.7863C18.6758 10.9224 18.6888 10.6484 18.6888 8.45437C18.6868 6.2612 18.6868 5.98279 18.6309 5.1233ZM9.6968 12.5749C7.14818 12.5749 5.08354 10.7167 5.08354 8.42294C5.08354 6.12918 7.14818 4.271 9.6968 4.271C12.2434 4.271 14.3101 6.12918 14.3101 8.42294C14.3101 10.7167 12.2434 12.5749 9.6968 12.5749ZM14.4937 5.08558C13.8979 5.08558 13.4179 4.6527 13.4179 4.11743C13.4179 3.58216 13.8979 3.14927 14.4937 3.14927C15.0874 3.14927 15.5684 3.58216 15.5684 4.11743C15.5684 4.6527 15.0874 5.08558 14.4937 5.08558Z" fill="#F3B921"/>
<path d="M9.69687 11.1201C11.3519 11.1201 12.6935 9.9126 12.6935 8.42308C12.6935 6.93357 11.3519 5.72607 9.69687 5.72607C8.04185 5.72607 6.7002 6.93357 6.7002 8.42308C6.7002 9.9126 8.04185 11.1201 9.69687 11.1201Z" fill="#F3B921"/>
</g>
<defs>
<clipPath id="clip0_5252_7251">
<rect width="18" height="16.2" fill="white" transform="translate(0.324219 0.341797)"/>
</clipPath>
</defs>
</svg>
