<svg width="20" height="17" viewBox="0 0 20 17" fill="none" xmlns="http://www.w3.org/2000/svg">
<g clip-path="url(#clip0_5252_7255)">
<path d="M4.22161 1.29832C4.22161 2.3791 3.35291 3.25484 2.28074 3.25484C1.20857 3.25484 0.339871 2.3791 0.339871 1.29832C0.339871 0.218319 1.20857 -0.658203 2.28074 -0.658203C3.35291 -0.658203 4.22161 0.218319 4.22161 1.29832ZM4.23726 4.82006H0.324219V17.3418H4.23726V4.82006ZM10.484 4.82006H6.59604V17.3418H10.4848V10.7687C10.4848 7.11388 15.2032 6.81493 15.2032 10.7687V17.3418H19.1068V9.41319C19.1068 3.24623 12.1244 3.47084 10.484 6.50658V4.82006Z" fill="#F3B921"/>
</g>
<defs>
<clipPath id="clip0_5252_7255">
<rect width="19" height="16.2" fill="white" transform="translate(0.324219 0.341797)"/>
</clipPath>
</defs>
</svg>
