<svg width="35" height="37" viewBox="0 0 35 37" fill="none" xmlns="http://www.w3.org/2000/svg">
<path d="M29.2529 14.2206C30.9556 14.2208 32.3349 15.6026 32.335 17.3075C32.335 19.0125 30.9556 20.3941 29.2529 20.3944C27.9263 20.3944 26.7994 19.5546 26.3643 18.3798H20.7168C19.8548 18.3798 19.0684 18.7333 18.4971 19.3055C17.9256 19.8779 17.5732 20.6626 17.5732 21.5292C17.5732 22.3927 17.9256 23.1805 18.4971 23.7528C19.0626 24.3191 19.8401 24.6727 20.6963 24.6786V24.6776H27.0273C28.4711 24.6776 29.7835 25.2673 30.7334 26.2186C31.6832 27.1699 32.2714 28.4839 32.2715 29.9296C32.2715 31.3754 31.6833 32.6901 30.7334 33.6415C29.7835 34.5928 28.4711 35.1815 27.0273 35.1815H8.98535C8.52479 36.3077 7.4227 37.1003 6.13281 37.1005C4.42988 37.1005 3.0498 35.7177 3.0498 34.0126C3.05006 32.3076 4.43004 30.9257 6.13281 30.9257C7.50779 30.9258 8.67069 31.8315 9.06641 33.076H27.0244C27.8865 33.076 28.6737 32.7235 29.2451 32.1512C29.8166 31.5789 30.1689 30.7932 30.1689 29.9266C30.1688 29.0632 29.8164 28.2752 29.2451 27.703C28.6737 27.1307 27.8895 26.7782 27.0244 26.7782H20.7168C19.2731 26.7781 17.9616 26.1884 17.0117 25.2372C16.0618 24.2859 15.4727 22.9721 15.4727 21.5262C15.4727 20.0804 16.0618 18.7667 17.0117 17.8153C17.9616 16.864 19.2731 16.2743 20.7168 16.2743H26.3506C26.7746 15.0782 27.9142 14.2206 29.2529 14.2206ZM6.04883 16.4667C7.15047 16.4759 8.23839 16.8863 9.17578 17.7421C9.50795 18.0439 9.78546 18.3864 10.0127 18.7616C10.7774 20.0261 10.9389 21.6285 10.6045 23.245C10.276 24.8406 9.46206 26.4614 8.25391 27.787C7.66355 28.4358 6.97531 29.0141 6.20312 29.4852L6.2041 29.4862C6.07884 29.5793 5.90438 29.5917 5.7627 29.4989C4.76585 28.8616 3.90505 28.1149 3.20117 27.3007L2.90918 26.9481C1.87173 25.6447 1.21484 24.1928 0.989258 22.7889C0.760689 21.3666 0.972508 19.9915 1.68555 18.871L1.79395 18.7069C2.05606 18.3281 2.37891 17.9814 2.7627 17.6776C3.76118 16.8825 4.90463 16.4575 6.04883 16.4667ZM5.83496 19.16C4.56156 19.16 3.52946 20.193 3.5293 21.4686C3.5293 22.7444 4.56146 23.7782 5.83496 23.7782C7.10841 23.7781 8.13965 22.7444 8.13965 21.4686C8.13948 20.193 7.1083 19.1601 5.83496 19.16ZM29.3584 -0.0997314C30.4602 -0.0904846 31.5479 0.319711 32.4854 1.17566L32.7246 1.40906C32.9531 1.65005 33.1509 1.91292 33.3213 2.19421C34.0862 3.45869 34.2484 5.06099 33.9141 6.67761C33.5856 8.27646 32.7718 9.89776 31.5635 11.2235C30.9731 11.8724 30.2849 12.4506 29.5127 12.9218C29.3874 13.0147 29.2139 13.0273 29.0723 12.9344V12.9354C27.9328 12.21 26.9715 11.3351 26.2188 10.3837C25.1783 9.07723 24.5204 7.62538 24.2949 6.22449C24.0664 4.80226 24.2793 3.42792 24.9922 2.30457V2.30359C25.2745 1.8641 25.6336 1.45846 26.0693 1.11121C27.0679 0.316021 28.2112 -0.108954 29.3584 -0.0997314ZM29.1445 2.59363C27.871 2.59363 26.8389 3.62642 26.8389 4.90222C26.839 6.17795 27.8711 7.21082 29.1445 7.21082C30.4178 7.21064 31.4491 6.17784 31.4492 4.90222C31.4492 3.62652 30.4179 2.5938 29.1445 2.59363Z" fill="#B78A16" stroke="#B78A16" stroke-width="0.2"/>
</svg>
