<svg width="28" height="29" viewBox="0 0 28 29" fill="none" xmlns="http://www.w3.org/2000/svg">
<circle cx="14" cy="14.3418" r="14" fill="#202D2D"/>
<g clip-path="url(#clip0_5252_7221)">
<path d="M21.5699 14.404C21.5726 14.1707 21.5117 13.9411 21.3937 13.7399C21.2757 13.5387 21.105 13.3735 20.9001 13.262L11.148 7.90316C10.9379 7.78346 10.6981 7.72598 10.4566 7.73745C10.215 7.74892 9.98176 7.82886 9.78396 7.96793C9.36528 8.25331 9.15078 8.93437 9.26812 9.42533L10.1782 13.2399C10.2236 13.43 10.332 13.5992 10.4857 13.7199C10.6395 13.8406 10.8295 13.9056 11.025 13.9046L16.4519 13.8877C16.5176 13.8863 16.5829 13.8982 16.6439 13.9227C16.7049 13.9472 16.7603 13.9838 16.8068 14.0303C16.8533 14.0767 16.8899 14.1321 16.9144 14.1931C16.9389 14.2541 16.9508 14.3195 16.9494 14.3852C16.9485 14.6584 16.7265 14.8804 16.4486 14.886L11.0165 14.8987C10.6138 14.8996 10.2618 15.1766 10.1656 15.5685L9.22306 19.3976C9.10853 19.8501 9.23902 20.3016 9.55819 20.6208C9.59574 20.6584 9.63799 20.7006 9.6807 20.7339C10.0937 21.0531 10.6354 21.0935 11.0982 20.8466L20.8837 15.5417C21.3038 15.3188 21.5643 14.8799 21.5704 14.4044L21.5699 14.404Z" fill="#F3B921"/>
</g>
<defs>
<clipPath id="clip0_5252_7221">
<rect width="15.931" height="15.931" fill="white" transform="translate(7.66797 5.0083) rotate(10.8584)"/>
</clipPath>
</defs>
</svg>
