<svg width="31" height="33" viewBox="0 0 31 33" fill="none" xmlns="http://www.w3.org/2000/svg">
<path d="M18.7369 2.63237C18.8834 2.44637 19.1562 2.42163 19.3339 2.57825L20.8535 3.91837L16.0682 9.90006H19.2377L22.7119 5.55721L25.438 7.96113C25.6057 8.10899 25.6252 8.36347 25.4818 8.53502L24.3413 9.90006H27.5492C28.3643 8.7103 28.1784 7.0777 27.075 6.1048L20.9708 0.72192C19.7276 -0.374406 17.8185 -0.201308 16.7929 1.10076L9.86073 9.90006H13.0116L18.7369 2.63237ZM21.8625 21.4501C21.1791 21.4501 20.625 22.0041 20.625 22.6876C20.625 23.371 21.1791 23.9251 21.8625 23.9251H25.1625C25.8459 23.9251 26.4 23.371 26.4 22.6876C26.4 22.0041 25.8459 21.4501 25.1625 21.4501H21.8625ZM2.475 10.3126C2.475 9.62911 3.02905 9.07506 3.7125 9.07506H8.87443L10.8405 6.60006H3.7125C1.66214 6.60006 0 8.26221 0 10.3126V27.6376C0 30.5991 2.40087 33.0001 5.3625 33.0001H25.1625C28.1241 33.0001 30.525 30.5991 30.525 27.6376V16.9126C30.525 13.9509 28.1241 11.5501 25.1625 11.5501H3.7125C3.02905 11.5501 2.475 10.996 2.475 10.3126ZM2.475 27.6376V13.8138C2.86206 13.9506 3.27858 14.0251 3.7125 14.0251H25.1625C26.7572 14.0251 28.05 15.3178 28.05 16.9126V27.6376C28.05 29.2323 26.7572 30.5251 25.1625 30.5251H5.3625C3.76778 30.5251 2.475 29.2323 2.475 27.6376Z" fill="#B78A16"/>
</svg>
